<?xml version="1.0" encoding="UTF-8"?>
<svg id="Layer_2" xmlns="http://www.w3.org/2000/svg" viewBox="0 0 300 300">
  <defs>
    <style>
      .cls-1 {
        fill: #fff;
      }

      .cls-2 {
        fill: #393;
      }
    </style>
  </defs>
  <g id="Layer_1-2" data-name="Layer_1">
    <path class="cls-2" d="M150,0C67.16,0,0,67.16,0,150s67.16,150,150,150,150-67.16,150-150S232.84,0,150,0Z"/>
    <path class="cls-1" d="M230.64,201.46c-.19,20.8-11.65,33.03-32.22,35.82-8.47,1.15-17.22.19-26.05.19-.15-.65-.5-1.43-.48-2.22.54-25.17.71-50.36,1.86-75.5.61-13.38,10.75-21.77,24.19-22.32,1.49-.06,4.03-1.81,4.18-3.01.89-7.35,1.54-14.77,1.5-22.16,0-1.51-3.22-4.15-5.12-4.31-10.31-.87-18.95,3.01-25.94,10.6-1.6,1.74-3.18,3.49-4.76,5.23-.56-.17-1.12-.34-1.68-.51,0-4.02.05-8.05-.01-12.07-.06-4.27-2.19-6.15-6.58-6.31-18.67-.65-34.85,12.46-36.7,31.1-1.71,17.24-2.07,34.61-3.46,51.89-.81,10.05-1.81,20.18-3.95,30.01-2.98,13.65-10.02,19.15-23.87,19.92-7.15.4-14.34.07-21.88.07-.12-1.98-.3-3.58-.3-5.17.08-41.3.16-82.59.28-123.89.01-3.71.12-7.44.45-11.14,1.71-18.92,18.42-33.23,37.55-32.55,4.91.18,7.25,2.05,7.09,7.04-.13,4.06-.03,8.12-.03,13.92,3.03-2.84,4.8-4.41,6.46-6.08,9.51-9.61,21.09-15.36,34.4-16.74,10.63-1.1,21.44-1.66,32.1-1.07,19.95,1.11,40.5,22.81,41.5,45.17"/>
  </g>
</svg>